<?xml version="1.0" standalone="no"?>
<!DOCTYPE svg PUBLIC "-//W3C//DTD SVG 20010904//EN"
 "http://www.w3.org/TR/2001/REC-SVG-20010904/DTD/svg10.dtd">
<svg version="1.0" xmlns="http://www.w3.org/2000/svg"
 width="500.000000pt" height="500.000000pt" viewBox="0 0 500.000000 500.000000"
 preserveAspectRatio="xMidYMid meet">

<g transform="translate(0.000000,500.000000) scale(0.100000,-0.100000)"
fill="#000000" stroke="none">
<path d="M3157 4066 c-70 -19 -117 -64 -171 -166 -55 -103 -77 -196 -83 -345
-8 -198 18 -358 93 -565 68 -188 145 -312 277 -447 50 -51 86 -93 81 -93 -32
1 -201 127 -275 207 -96 102 -222 316 -256 432 -8 30 -16 96 -17 148 0 51 -4
93 -7 93 -14 0 -29 -92 -29 -173 0 -80 18 -175 53 -274 23 -67 1 -40 -48 57
-89 177 -116 362 -76 520 27 108 113 282 197 400 36 50 64 94 61 96 -10 10
-92 -39 -142 -84 -109 -98 -182 -225 -221 -390 -23 -93 -26 -122 -21 -222 10
-241 74 -398 232 -569 38 -42 127 -112 228 -180 26 -18 47 -33 47 -34 0 -1
-80 -3 -178 -4 -214 -3 -248 -9 -245 -44 8 -100 9 -103 44 -111 53 -10 424
-28 602 -28 148 0 387 17 545 40 320 45 446 373 305 795 -102 309 -311 600
-563 787 -105 78 -233 144 -304 157 -71 13 -68 13 -129 -3z m226 -334 c34 -17
89 -55 122 -86 l60 -56 -50 21 c-27 11 -75 23 -105 26 l-55 4 50 -28 c235
-134 415 -351 524 -631 36 -93 53 -188 50 -276 -5 -99 -20 -128 -90 -164 -76
-40 -197 -18 -368 67 -143 71 -365 278 -423 396 -50 100 -98 339 -98 485 0 69
5 95 24 136 28 60 80 113 128 131 54 21 159 9 231 -25z m-38 -1069 c61 -47
221 -129 310 -159 109 -37 233 -40 286 -6 35 21 58 48 86 102 7 14 13 20 13
13 0 -7 7 -10 15 -7 21 8 19 -19 -4 -65 -25 -48 -83 -101 -145 -130 -41 -21
-58 -23 -139 -19 -79 4 -102 9 -169 40 -94 44 -150 82 -249 169 -66 59 -149
162 -149 185 0 5 24 -14 53 -42 28 -28 70 -64 92 -81z"/>
<path d="M1236 3862 c-3 -5 24 -55 59 -113 36 -57 65 -111 65 -120 0 -20 -7
-13 498 -498 122 -117 222 -219 222 -227 0 -29 161 -150 302 -227 79 -43 154
-86 168 -95 27 -19 24 -10 -17 44 -12 16 -32 61 -44 99 -20 65 -112 262 -143
307 -8 11 -30 30 -49 42 -36 21 -140 109 -300 251 -49 44 -124 110 -166 146
-42 37 -129 118 -194 181 l-119 115 -116 45 c-146 57 -159 61 -166 50z m174
-102 c0 -4 -6 -13 -14 -19 -10 -9 -19 -4 -40 23 l-26 34 40 -15 c22 -9 40 -19
40 -23z m129 -84 l23 -25 -53 -28 c-30 -15 -57 -29 -61 -31 -5 -2 -8 12 -8 31
0 27 7 40 28 56 35 26 44 26 71 -3z m182 -167 c62 -56 161 -143 219 -195 58
-51 142 -125 188 -164 45 -40 82 -77 82 -83 0 -13 -72 -67 -89 -67 -9 0 -357
326 -535 500 l-59 58 29 26 c16 14 34 26 40 26 5 0 62 -45 125 -101z m602
-559 c42 -46 105 -175 93 -188 -3 -3 -14 2 -23 10 -10 8 -46 31 -79 51 -75 45
-87 59 -86 98 1 32 26 79 41 79 5 0 29 -22 54 -50z"/>
<path d="M1064 3111 c-344 -55 -567 -372 -568 -806 0 -244 67 -427 213 -587
82 -89 231 -170 231 -125 0 9 -10 23 -22 31 -13 9 -56 49 -96 88 -82 82 -139
186 -174 318 -26 96 -28 310 -4 417 42 191 108 330 211 440 132 142 300 200
475 162 57 -12 75 -5 45 17 -51 37 -211 60 -311 45z"/>
<path d="M1734 2941 c-107 -38 -229 -143 -331 -281 -56 -77 -182 -292 -220
-375 -169 -371 -238 -769 -170 -980 57 -173 166 -279 342 -331 83 -24 234 -22
350 4 50 12 149 34 220 51 172 40 318 60 473 67 148 6 179 11 165 25 -17 17
-250 31 -393 24 -74 -3 -216 -18 -315 -32 -361 -51 -501 -11 -590 171 -41 84
-55 149 -55 260 0 357 250 998 478 1225 31 32 83 70 115 86 70 34 77 29 77
-59 0 -185 -129 -410 -388 -677 -64 -66 -118 -124 -120 -130 -2 -5 8 -9 22 -9
67 0 411 373 529 575 113 193 100 333 -35 390 -48 20 -91 19 -154 -4z"/>
<path d="M4189 2081 c-57 -35 -63 -45 -209 -340 -114 -229 -149 -281 -186
-281 -25 0 -15 68 31 209 25 76 45 145 45 155 0 18 -37 36 -74 36 -15 0 -27
-9 -35 -27 -7 -16 -47 -76 -88 -135 -98 -140 -220 -257 -238 -229 -18 30 86
249 167 353 64 80 104 106 137 88 20 -10 26 -9 47 11 13 12 24 27 24 33 0 17
-123 76 -158 76 -57 0 -139 -96 -237 -275 -58 -106 -111 -155 -167 -155 -49 0
-48 12 8 123 67 133 72 180 23 221 -18 15 -43 26 -60 26 -27 0 -33 -6 -54 -52
-27 -61 -55 -187 -55 -252 0 -37 -7 -53 -41 -98 -91 -117 -165 -174 -200 -152
-18 11 -4 90 31 179 48 122 180 365 222 411 l38 41 -31 7 c-46 9 -88 7 -109
-4 -48 -26 -172 -238 -220 -378 -60 -171 -60 -261 0 -314 71 -64 172 -12 290
152 36 49 49 60 65 55 54 -17 106 -17 146 -1 39 16 41 16 35 0 -44 -116 -11
-194 84 -194 32 0 82 40 173 138 22 23 43 42 48 42 5 0 9 -22 9 -50 0 -69 16
-98 61 -111 33 -10 43 -9 78 9 22 12 47 19 55 16 21 -8 57 45 140 214 42 83
78 152 79 152 2 0 2 -39 0 -87 -5 -99 -20 -144 -89 -259 -42 -72 -55 -114 -35
-114 5 0 35 28 66 63 l56 62 -6 -40 c-20 -126 -59 -209 -123 -267 -118 -107
-262 -149 -507 -149 -249 1 -490 54 -640 141 -91 53 -119 81 -145 143 -49 114
-35 217 65 467 68 173 69 187 14 216 -26 13 -32 13 -58 -1 -30 -15 -184 -176
-224 -233 -12 -18 -25 -32 -29 -32 -11 0 4 35 89 212 45 95 73 164 69 174 -5
13 -15 15 -48 11 -51 -7 -92 -36 -96 -68 -5 -32 -176 -402 -210 -454 -39 -60
-74 -95 -94 -95 -34 0 -18 73 54 255 l40 100 -27 22 c-37 33 -67 30 -89 -9
-49 -84 -194 -263 -254 -313 -37 -30 -70 -55 -74 -55 -19 0 24 131 69 210 46
82 147 209 180 227 25 13 37 15 56 6 22 -10 28 -8 52 17 l26 28 -28 19 c-53
38 -92 53 -135 53 -39 0 -49 -5 -89 -47 -55 -57 -90 -109 -152 -223 -46 -85
-107 -250 -107 -289 0 -56 48 -101 109 -101 24 0 46 17 125 102 l96 101 0 -67
c0 -82 10 -102 57 -115 45 -13 78 -6 121 26 l32 24 10 -26 c12 -32 52 -48 83
-34 24 11 68 72 112 155 54 102 245 350 252 328 2 -6 -12 -42 -31 -81 -19 -39
-49 -111 -67 -159 -29 -79 -32 -101 -33 -199 -1 -105 0 -113 32 -177 43 -87
108 -144 237 -208 178 -88 405 -132 680 -132 424 0 648 123 720 397 20 74 39
293 31 358 -3 26 -1 95 4 153 9 105 31 176 63 202 14 12 20 10 42 -12 31 -31
31 -50 0 -111 -13 -27 -22 -51 -20 -53 9 -9 71 36 92 68 28 41 29 79 4 129
-40 77 -121 94 -202 42z m-949 -255 c-12 -39 -69 -139 -70 -121 0 20 53 201
64 214 16 21 21 -44 6 -93z"/>
</g>
</svg>
